<svg width="32" height="41" viewBox="0 0 32 41" fill="none" xmlns="http://www.w3.org/2000/svg">
<path d="M26.6931 0.588502C26.6926 0.588502 26.6926 0.588003 26.6921 0.588003C24.0899 -0.654946 21.2915 0.337916 19.0427 1.1351C17.8926 1.54293 16.8064 1.92829 16.0012 1.92829C15.196 1.92829 14.1098 1.54343 12.9602 1.1351C10.7119 0.337417 7.91355 -0.654447 5.30935 0.588003C1.44372 2.43845 -1.37812 6.76681 0.707437 11.4596C1.35337 12.9167 1.95588 14.0303 2.44058 14.9248C3.37703 16.6555 3.9426 17.7003 3.9426 19.4898C3.9426 22.2727 4.77573 31.3822 8.47712 36.5596C10.346 39.1768 12.3083 40.0833 12.3912 40.1208C12.6692 40.2466 12.9972 40.1902 13.2183 39.978C13.4389 39.7659 13.5083 39.4404 13.3935 39.1569C13.3666 39.091 10.7379 32.5073 12.3053 28.2254C13.1789 25.8518 14.8701 24.5165 15.9193 24.6273C15.9738 24.6338 16.0297 24.6338 16.0841 24.6273C17.1423 24.5155 18.8245 25.8523 19.6961 28.2244C21.2655 32.5073 18.6334 39.0905 18.6064 39.1564C18.4916 39.4399 18.5605 39.7654 18.7811 39.9775C18.9239 40.1143 19.1106 40.1867 19.3008 40.1867C19.4046 40.1867 19.5089 40.1652 19.6078 40.1208C19.6906 40.0833 21.6564 39.1768 23.5258 36.5596C27.2247 31.3812 28.0573 22.2722 28.0573 19.4893C28.0573 17.7003 28.6224 16.656 29.5588 14.9253C30.043 14.0303 30.6455 12.9167 31.291 11.4606C33.379 6.7703 30.5587 2.44095 26.6931 0.588502ZM29.9217 10.8526C29.2993 12.2562 28.7367 13.296 28.2405 14.213C27.2641 16.0175 26.5588 17.3214 26.5588 19.4898C26.5588 22.8328 25.519 31.1915 22.3063 35.6896C21.7732 36.4359 21.2331 37.0224 20.7479 37.4741C21.4642 34.9808 22.2684 30.8955 21.1013 27.7088C20.1174 25.0307 18.0558 23.1233 16.2064 23.1233C16.1375 23.1233 16.0691 23.1258 16.0012 23.1313C14.1008 22.9791 11.9209 24.9308 10.8986 27.7093C9.73255 30.8945 10.5352 34.9783 11.2505 37.4716C10.7663 37.0204 10.2272 36.4344 9.69511 35.6891C6.47991 31.1915 5.43963 22.8328 5.43963 19.4898C5.43963 17.3214 4.73379 16.017 3.75691 14.2125C3.26072 13.2955 2.69815 12.2562 2.07568 10.8521C0.830235 8.05019 1.51361 4.06527 5.95478 1.93977C7.99641 0.963883 10.3675 1.8045 12.4595 2.54677C13.7344 2.99902 14.9385 3.42582 16.0012 3.42582C17.0639 3.42582 18.2685 2.99902 19.5434 2.54677C21.6344 1.805 24.004 0.964881 26.0471 1.93927C30.4883 4.06826 31.1692 8.05119 29.9217 10.8526Z" fill="black" fill-opacity="0.8"/>
<path d="M8.6688 5.12521C9.08012 5.12272 9.41307 4.78877 9.41307 4.37645C9.41307 3.96263 9.07812 3.62769 8.66431 3.62769C8.58893 3.62769 6.80587 3.64316 5.57291 4.99293C4.70234 5.94636 4.33794 7.28465 4.49119 8.96987C4.81765 12.6338 8.04533 15.3908 8.1826 15.5066C8.32287 15.6249 8.49459 15.6828 8.66431 15.6828C8.87745 15.6828 9.0896 15.5919 9.23736 15.4162C9.50392 15.0998 9.46349 14.6275 9.14701 14.361C9.11806 14.3365 6.25528 11.893 5.98273 8.83609C5.86992 7.59314 6.10103 6.64371 6.6691 6.01425C7.44532 5.15317 8.64783 5.12521 8.6688 5.12521Z" fill="black" fill-opacity="0.8"/>
</svg>
