<svg width="39" height="39" viewBox="0 0 39 39" fill="none" xmlns="http://www.w3.org/2000/svg">
<path d="M38.657 0.192639C38.3997 -0.0642131 37.9831 -0.0642131 37.7258 0.192639L29.7778 8.14321L28.7873 7.15312C28.6639 7.02974 28.4962 6.96037 28.3215 6.96037C28.1467 6.96037 27.9794 7.02974 27.8556 7.15356L25.2151 9.79584L23.2051 7.78537C23.0817 7.66199 22.914 7.59262 22.7392 7.59262C22.5645 7.59262 22.3972 7.66199 22.2734 7.78537L19.4278 10.6309C19.4265 10.6323 19.4252 10.6323 19.4239 10.6336C19.4225 10.6349 19.4225 10.6362 19.4212 10.6375L15.6747 14.3845C15.6725 14.3867 15.6699 14.3871 15.6677 14.3889C15.6655 14.3906 15.665 14.3937 15.6633 14.3959L11.922 18.1372C11.9194 18.1398 11.9159 18.1403 11.9137 18.1429C11.9115 18.1455 11.9106 18.1486 11.908 18.1512L8.1689 21.8903C8.16583 21.8934 8.16188 21.8938 8.1588 21.8969C8.15573 21.9 8.15485 21.9039 8.15222 21.907L5.18195 24.8772C5.05858 25.0006 4.9892 25.1683 4.9892 25.3431C4.9892 25.5174 5.05858 25.6851 5.18195 25.8089L7.19242 27.819L3.63513 31.3754L1.62422 29.364C1.36693 29.1067 0.95026 29.1067 0.692968 29.364C0.435677 29.6213 0.435677 30.038 0.692968 30.2953L6.07676 35.6795C6.07764 35.6804 6.07808 35.6817 6.07896 35.683C6.07984 35.6844 6.08115 35.6844 6.08247 35.6852L8.64353 38.2467C8.77218 38.3754 8.94078 38.4395 9.10938 38.4395C9.27798 38.4395 9.44658 38.3754 9.57522 38.2467C9.83251 37.9895 9.83251 37.5728 9.57522 37.3155L7.47606 35.2172L11.0342 31.6603L13.046 33.6721C13.1747 33.8008 13.3433 33.8649 13.5119 33.8649C13.6805 33.8649 13.8491 33.8008 13.9777 33.6721L31.0674 16.5803C31.3247 16.323 31.3247 15.9063 31.0674 15.649L29.0578 13.6394L31.6983 10.994C31.9552 10.7368 31.9547 10.3201 31.6979 10.0628L30.7091 9.0749L38.657 1.12389C38.9143 0.866602 38.9143 0.449492 38.657 0.192639ZM6.54481 34.2855L4.56595 32.3066L8.12324 28.7498L10.1021 30.7287L6.54481 34.2855ZM13.5119 32.2746L8.59348 27.3571C8.59216 27.3558 8.59172 27.3536 8.5904 27.3523C8.58909 27.3509 8.58689 27.3505 8.58557 27.3492L6.57905 25.3431L8.62641 23.2957L11.1071 25.7756C11.2358 25.9042 11.4044 25.9683 11.573 25.9683C11.7416 25.9683 11.9102 25.9042 12.0388 25.7756C12.2957 25.5183 12.2957 25.1012 12.0388 24.8443L9.5581 22.3645L12.3813 19.5413L14.8602 22.0203C14.9889 22.1489 15.1575 22.213 15.3261 22.213C15.4947 22.213 15.6633 22.1489 15.7919 22.0203C16.0492 21.763 16.0492 21.3459 15.7919 21.089L13.313 18.6101L16.1361 15.7869L18.6177 18.2663C18.7464 18.3949 18.9145 18.459 19.0831 18.459C19.2517 18.459 19.4203 18.3949 19.549 18.2658C19.8058 18.0085 19.8058 17.5914 19.5485 17.3346L17.0674 14.8556L19.8915 12.0316L22.3708 14.5114C22.4991 14.64 22.6681 14.7041 22.8367 14.7041C23.0053 14.7041 23.1739 14.64 23.3025 14.5114C23.5598 14.2545 23.5598 13.8374 23.3025 13.5801L20.8231 11.1003L22.7405 9.18247L24.7475 11.1899C24.7488 11.1912 24.7488 11.1925 24.7501 11.1934L27.662 14.1048C27.6624 14.1053 27.6629 14.1057 27.6633 14.1061L29.6712 16.1144L13.5119 32.2746ZM28.1265 12.7073L26.1468 10.7271L28.3219 8.55022L29.3094 9.53724C29.3102 9.53811 29.3107 9.53987 29.3116 9.54075C29.3124 9.54163 29.3142 9.54206 29.3151 9.54294L30.3012 10.5286L28.1265 12.7073Z" fill="black" fill-opacity="0.8"/>
</svg>
