<svg width="34" height="46" viewBox="0 0 34 46" fill="none" xmlns="http://www.w3.org/2000/svg">
<path d="M16.845 28.5859C7.83233 28.5859 0.5 35.9183 0.5 44.9309C0.5 45.3702 0.855568 45.7258 1.29486 45.7258H32.3951C32.8344 45.7258 33.19 45.3702 33.19 44.9309C33.19 35.9183 25.8577 28.5859 16.845 28.5859ZM2.11092 44.1361C2.52531 36.3682 8.97587 30.1757 16.845 30.1757C24.7141 30.1757 31.1647 36.3682 31.5791 44.1361H2.11092Z" fill="black" fill-opacity="0.8"/>
<path d="M16.5755 27.1324C21.7887 27.1324 26.0306 22.8894 26.0306 17.6735C26.0306 15.831 25.4991 14.0537 24.4992 12.5196V0.794862C24.4992 0.355568 24.1436 0 23.7044 0H9.44772C9.00843 0 8.65286 0.355568 8.65286 0.794862V12.5143C7.65027 14.0516 7.11877 15.8326 7.11877 17.6735C7.11824 22.8894 11.3607 27.1324 16.5755 27.1324ZM10.2421 1.59025H22.909V12.1603H10.2421V1.59025ZM9.75983 13.7495H23.3938C24.0801 14.9392 24.4409 16.2846 24.4409 17.6735C24.4404 22.0129 20.9123 25.5426 16.5755 25.5426C12.2377 25.5426 8.7085 22.0124 8.7085 17.6735C8.7085 16.2867 9.07201 14.9408 9.75983 13.7495Z" fill="black" fill-opacity="0.8"/>
<path d="M19.3451 6.16791H17.3701V4.18976C17.3701 3.75047 17.0145 3.3949 16.5752 3.3949C16.1359 3.3949 15.7804 3.75047 15.7804 4.18976V6.16791H13.8049C13.3656 6.16791 13.01 6.52348 13.01 6.96277C13.01 7.40206 13.3656 7.75763 13.8049 7.75763H15.7804V9.73313C15.7804 10.1724 16.1359 10.528 16.5752 10.528C17.0145 10.528 17.3701 10.1724 17.3701 9.73313V7.75763H19.3451C19.7844 7.75763 20.1399 7.40206 20.1399 6.96277C20.1399 6.52348 19.7838 6.16791 19.3451 6.16791Z" fill="black" fill-opacity="0.8"/>
</svg>
