<svg width="107" height="57" viewBox="0 0 107 57" fill="none" xmlns="http://www.w3.org/2000/svg">
<path d="M32.1309 40.2233C22.5981 40.2233 13.0678 40.2209 3.53493 40.233C3.09618 40.233 2.984 40.1096 2.98649 39.6933C2.99896 31.3122 2.99896 22.9287 2.98649 14.5477C2.98649 14.1217 3.11363 13.9935 3.5449 14.0152C4.23044 14.0467 4.92098 14.0394 5.60902 14.0177C5.97048 14.0056 6.06521 14.1338 6.06521 14.4702C6.05524 19.7849 6.05774 25.0972 6.05774 30.4119C6.05774 32.5223 6.06771 34.6327 6.04776 36.7431C6.04278 37.1473 6.14997 37.2659 6.57875 37.2659C25.5422 37.2562 44.5056 37.2586 63.4691 37.2441C64.025 37.2441 64.1571 37.3917 64.1571 37.9193C64.1372 43.9988 64.1397 50.0759 64.1546 56.1554C64.1546 56.5668 64.0375 56.6999 63.6137 56.6757C62.9979 56.6442 62.3772 56.6515 61.759 56.6733C61.41 56.6854 61.3202 56.5571 61.3202 56.2352C61.3277 51.0657 61.3227 45.8987 61.3327 40.7292C61.3327 40.3395 61.2305 40.2185 60.8166 40.2185C51.2539 40.2258 41.6937 40.2233 32.1309 40.2233Z" fill="black"/>
<path d="M64.1421 23.9888C64.1421 27.1447 64.1372 30.2982 64.1496 33.4541C64.1496 33.7905 64.0574 33.9212 63.6934 33.9067C63.0951 33.8825 62.4968 33.8825 61.8986 33.9043C61.3077 33.926 61.046 33.5896 60.8191 33.125C60.6521 32.7837 60.3704 32.4981 60.1535 32.1787C59.8718 31.7624 59.6076 31.3389 59.3359 30.9178C59.1638 30.6515 59.0043 30.3756 58.8123 30.1264C58.5232 29.7512 58.1841 29.41 57.9149 29.0203C57.6906 28.696 57.5509 28.3136 57.344 27.9748C57.1745 27.7013 56.9626 27.4521 56.7632 27.1931C56.484 26.8301 56.1799 26.484 55.9256 26.104C55.5417 25.5304 55.2076 24.923 54.8237 24.3494C54.5769 23.9815 54.2628 23.6548 54.011 23.2894C53.7692 22.9408 53.5798 22.556 53.3479 22.2027C53.1485 21.9026 52.9117 21.6267 52.7048 21.329C52.4181 20.9176 52.1439 20.4989 51.8597 20.085C51.7974 19.9931 51.7226 19.9084 51.6553 19.8164C51.4733 19.5623 51.2988 19.3082 51.1143 19.0565C51.0844 19.0177 51.027 18.9984 50.9822 18.9693C50.9622 19.0202 50.9273 19.0734 50.9248 19.1242C50.9199 19.434 50.9199 19.7438 50.9199 20.0536C50.9199 24.5067 50.9149 28.9574 50.9273 33.4105C50.9273 33.7929 50.8152 33.9212 50.4213 33.9018C49.7856 33.8728 49.1449 33.8801 48.5067 33.8994C48.1901 33.9091 48.0929 33.7978 48.0929 33.4977C48.1029 30.971 48.0979 28.4443 48.0979 25.9201C48.0979 22.1059 48.1029 18.2941 48.0904 14.4799C48.0904 14.1338 48.1827 13.9886 48.5591 14.0104C49.0153 14.037 49.4765 14.0104 49.9352 14.0176C50.4911 14.0249 51.0894 13.8555 51.3985 14.5743C51.5904 15.022 51.9095 15.4238 52.1987 15.8255C52.4754 16.2103 52.802 16.5588 53.0737 16.9461C53.2981 17.2631 53.4576 17.6237 53.6745 17.9456C53.9363 18.3304 54.2379 18.691 54.5096 19.0686C54.8138 19.4897 55.1079 19.918 55.4071 20.344C55.6289 20.661 55.8558 20.9781 56.0752 21.2975C56.3544 21.7066 56.6186 22.1252 56.9028 22.5318C57.1471 22.8803 57.4188 23.2119 57.6606 23.5628C57.9673 24.0081 58.249 24.468 58.5581 24.9133C58.9893 25.5329 59.4431 26.1379 59.8718 26.7599C60.2807 27.3528 60.6671 27.9627 61.0684 28.5605C61.1108 28.621 61.1956 28.6549 61.2604 28.7009C61.2778 28.6186 61.3127 28.5363 61.3127 28.454C61.3177 27.6021 61.3152 26.7502 61.3152 25.8983C61.3152 22.0938 61.3202 18.2917 61.3077 14.4872C61.3077 14.1217 61.4124 13.991 61.7988 14.008C62.4345 14.0346 63.0752 14.0297 63.7134 14.0104C64.0424 14.0007 64.1421 14.1169 64.1421 14.4315C64.1397 17.6189 64.1421 20.8038 64.1421 23.9888Z" fill="black"/>
<path d="M9.21872 23.9597C9.21872 20.7941 9.22371 17.631 9.21124 14.4654C9.21124 14.1266 9.31096 14.0128 9.66994 14.0128C12.3124 14.0249 14.9549 14.0031 17.5949 14.0298C18.3352 14.037 19.0906 14.1169 19.811 14.2839C20.3345 14.4049 20.8132 14.7195 21.3093 14.9518C21.8527 15.2084 22.4261 15.4238 22.9272 15.7481C23.2587 15.9635 23.4881 16.3289 23.7548 16.6363C23.8396 16.7331 23.8745 16.8686 23.9542 16.9703C24.2858 17.3865 24.6572 17.7762 24.9539 18.2142C25.1159 18.4538 25.1583 18.7685 25.2555 19.0492C25.4076 19.5018 25.5597 19.9519 25.7142 20.4045C25.7167 20.4142 25.7242 20.4214 25.7242 20.4311C25.8114 20.9466 25.956 21.4597 25.971 21.9776C26.0084 23.253 26.0308 24.5357 25.9635 25.8088C25.9286 26.4501 25.6843 27.0818 25.5297 27.7183C25.4425 28.0789 25.3627 28.4419 25.253 28.7977C25.1832 29.0276 25.1084 29.272 24.9663 29.4632C24.4254 30.1893 23.872 30.9081 23.2886 31.6027C22.9621 31.9899 22.6131 32.3844 22.1918 32.6579C21.7904 32.9192 21.2843 33.0281 20.8232 33.2C20.4542 33.3379 20.0828 33.4686 19.7113 33.5993C19.6291 33.6284 19.5443 33.655 19.457 33.6671C16.2238 34.0591 12.973 33.8486 9.72976 33.9115C9.31594 33.9188 9.21124 33.7905 9.21124 33.4009C9.22371 30.2498 9.21872 27.1036 9.21872 23.9597ZM12.2775 24.0735C12.2775 26.3267 12.28 28.5823 12.2725 30.8355C12.2725 31.1017 12.3398 31.2179 12.639 31.2154C14.5535 31.2058 16.4656 31.2106 18.3801 31.2082C18.4823 31.2082 18.592 31.1767 18.6892 31.1356C19.0208 30.9952 19.3474 30.85 19.6739 30.6951C20.1102 30.4894 20.5888 30.3297 20.9628 30.0441C21.2868 29.7996 21.5062 29.4148 21.743 29.076C21.9175 28.8267 22.0696 28.5581 22.1918 28.2798C22.3164 27.9918 22.3912 27.6844 22.4909 27.3867C22.648 26.9148 22.9272 26.4477 22.9471 25.9709C23.0069 24.5503 22.9695 23.1272 22.967 21.7041C22.967 21.617 22.967 21.525 22.9396 21.4476C22.7776 21.0047 22.5981 20.5691 22.441 20.1262C22.3338 19.8285 22.3189 19.4824 22.1469 19.2331C21.8228 18.7636 21.4613 18.3038 21.0326 17.9287C20.6761 17.6165 20.2174 17.3914 19.7712 17.2002C19.3174 17.0066 18.8239 16.7912 18.3427 16.7791C16.5204 16.7307 14.6956 16.7573 12.8708 16.7597C12.4794 16.7597 12.2725 16.9243 12.275 17.3381C12.2825 19.5841 12.2775 21.8276 12.2775 24.0735Z" fill="black"/>
<path d="M29.4336 23.9452C29.4336 20.7893 29.4386 17.6358 29.4261 14.4799C29.4236 14.1314 29.5234 14.0104 29.8973 14.0128C34.5241 14.0225 39.1484 14.0225 43.7752 14.0152C44.1093 14.0152 44.2389 14.1072 44.2264 14.4436C44.204 15.0632 44.2015 15.6827 44.2264 16.3023C44.2414 16.6556 44.1267 16.7694 43.7553 16.7694C40.1655 16.7573 36.5782 16.7694 32.9885 16.7549C32.5871 16.7525 32.4824 16.8735 32.4874 17.251C32.5073 18.7612 32.5098 20.2714 32.4849 21.7792C32.4774 22.1833 32.6145 22.2777 33.0109 22.2753C36.3215 22.2608 39.6295 22.2729 42.9401 22.2608C43.3215 22.2584 43.4761 22.3503 43.4536 22.7448C43.4212 23.3426 43.4312 23.9452 43.4511 24.5454C43.4611 24.8649 43.3415 24.9641 43.0199 24.9617C39.6694 24.952 36.3215 24.9617 32.971 24.9472C32.5821 24.9448 32.4824 25.0609 32.4849 25.4264C32.5024 27.1883 32.5049 28.9501 32.4849 30.7096C32.4799 31.0968 32.5821 31.2227 32.9984 31.2203C36.7378 31.2058 40.4746 31.2179 44.214 31.2058C44.5904 31.2058 44.725 31.3074 44.7076 31.6801C44.6801 32.2973 44.72 32.9192 44.6826 33.5364C44.6752 33.6622 44.4608 33.8825 44.3411 33.8825C39.485 33.8994 34.6313 33.8946 29.7751 33.9018C29.4236 33.9018 29.4286 33.7082 29.4286 33.4686C29.4336 30.2958 29.4336 27.1205 29.4336 23.9452Z" fill="black"/>
<path d="M76.5892 25.3296C76.5892 28.0377 76.5842 30.7483 76.5967 33.4565C76.5991 33.7978 76.4919 33.9164 76.1355 33.9043C75.4175 33.8825 74.6996 33.8825 73.9841 33.9043C73.6301 33.9164 73.5229 33.8002 73.5229 33.4565C73.5329 28.1442 73.5304 22.8319 73.5304 17.5197C73.5304 16.8057 73.4805 16.7549 72.7526 16.7549C70.9178 16.7549 69.0855 16.75 67.2508 16.7597C66.9292 16.7621 66.8095 16.6653 66.8195 16.3459C66.8395 15.6779 66.8095 15.0099 66.8419 14.3444C66.8469 14.2306 67.0489 14.0322 67.1585 14.0322C72.3612 14.0152 77.5639 14.0152 82.7666 14.0322C82.8812 14.0322 83.0857 14.2452 83.0906 14.3662C83.123 15.0414 83.1255 15.7215 83.0881 16.3967C83.0807 16.5225 82.8488 16.7379 82.7167 16.7404C80.8321 16.7621 78.9499 16.767 77.0653 16.7476C76.6739 16.7428 76.5792 16.8662 76.5817 17.2292C76.5967 19.9302 76.5892 22.6311 76.5892 25.3296Z" fill="black"/>
<path d="M73.5279 49.6209C73.5279 47.433 73.5354 45.2476 73.5204 43.0598C73.5179 42.6847 73.6401 42.5685 74.019 42.5854C74.555 42.6121 75.0959 42.6145 75.6319 42.5854C76.0258 42.5636 76.1504 42.7113 76.113 43.0695C76.0906 43.2994 76.1055 43.5341 76.1105 43.7665C76.113 43.8391 76.1454 43.9093 76.1654 43.9819C76.2152 43.9335 76.2576 43.8778 76.3149 43.8415C76.8335 43.4978 77.3495 43.1469 77.878 42.8153C79.0147 42.1038 80.2936 42.3168 81.5326 42.3265C81.8591 42.3289 82.1907 42.5177 82.5073 42.6508C82.7566 42.7573 83.0233 42.871 83.2178 43.0477C83.7836 43.5583 84.3445 44.0811 84.8456 44.6474C85.0176 44.841 85.0351 45.1799 85.0774 45.4582C85.6359 49.0497 85.1672 52.6655 85.3242 56.2667C85.3367 56.574 85.2146 56.6757 84.9079 56.666C84.3495 56.6491 83.7911 56.6466 83.2327 56.6684C82.8937 56.6805 82.784 56.5668 82.7865 56.2352C82.7989 53.815 82.8189 51.3973 82.779 48.9771C82.764 48.1252 82.6494 47.2612 82.4649 46.4287C82.3677 45.9882 82.081 45.5526 81.7744 45.1992C81.5899 44.9862 81.2185 44.8991 80.9118 44.8193C80.4706 44.7055 79.992 44.5361 79.5632 44.6039C78.9599 44.6982 78.3791 44.962 77.8132 45.2089C77.519 45.3372 77.2523 45.5574 77.0229 45.7801C76.8434 45.9567 76.654 46.1891 76.6116 46.4214C76.4845 47.1039 76.4695 47.8057 76.3399 48.4858C75.8413 51.1044 76.2352 53.7424 76.0931 56.3683C76.0881 56.4676 75.9211 56.6394 75.8238 56.6418C75.1558 56.666 74.4877 56.6708 73.8221 56.637C73.7174 56.6321 73.5404 56.3925 73.5404 56.2618C73.5229 54.0522 73.5279 51.8353 73.5279 49.6209Z" fill="black"/>
<path d="M97.0459 49.6233C97.0459 49.9331 97.0184 50.2453 97.0508 50.5526C97.1157 51.148 97.1406 51.7603 97.3201 52.3242C97.5494 53.0478 97.9832 53.7352 98.6338 54.1393C99.1748 54.4781 99.8055 54.7976 100.541 54.6814C100.9 54.6258 101.284 54.7177 101.643 54.6572C101.934 54.6088 102.224 54.4636 102.48 54.3112C102.77 54.1417 103.099 53.9626 103.271 53.7013C103.562 53.256 103.759 52.7477 103.971 52.254C104.088 51.9829 104.133 51.6828 104.258 51.4142C104.29 51.3416 104.5 51.3053 104.619 51.3198C105.063 51.3755 105.504 51.4481 105.943 51.5352C106.277 51.603 106.606 51.7022 106.933 51.799C106.97 51.8111 107.015 51.9224 106.997 51.9636C106.686 52.6727 106.397 53.3915 106.035 54.0764C105.851 54.4273 105.547 54.725 105.28 55.0324C105.023 55.33 104.769 55.6398 104.465 55.8891C104.2 56.1069 103.869 56.2521 103.562 56.4167C102.219 57.1355 100.753 56.879 99.3318 56.8669C98.8382 56.862 98.3023 56.6345 97.866 56.3804C97.168 55.9762 96.5024 55.5019 95.8966 54.9791C95.5925 54.7177 95.4479 54.2821 95.236 53.9215C94.9967 53.5198 94.7649 53.1132 94.5305 52.709C94.5031 52.6606 94.4807 52.6025 94.4757 52.5468C94.3909 51.3343 94.2688 50.1218 94.2463 48.9069C94.2339 48.2172 94.3286 47.5105 94.5006 46.8401C94.6252 46.3512 94.9369 45.9011 95.1886 45.4485C95.4305 45.0104 95.6473 44.5385 95.9814 44.1755C96.3653 43.7592 96.8489 43.4155 97.33 43.0985C97.5694 42.9412 97.9084 42.9315 98.1926 42.825C98.5815 42.6798 98.9579 42.5007 99.3418 42.3458C99.4291 42.3095 99.5363 42.3071 99.6335 42.3071C100.481 42.3047 101.331 42.2708 102.174 42.3216C102.533 42.3434 102.882 42.5394 103.231 42.6677C103.298 42.6919 103.348 42.8008 103.41 42.8032C104.158 42.842 104.694 43.2994 105.125 43.7882C105.592 44.3183 105.926 44.9645 106.265 45.5864C106.464 45.9519 106.571 46.3682 106.703 46.7675C106.718 46.811 106.631 46.9345 106.576 46.9442C105.921 47.0531 105.265 47.1765 104.604 47.237C104.101 47.283 103.774 46.9248 103.727 46.4238C103.712 46.2689 103.587 46.1237 103.505 45.9785C103.405 45.8018 103.335 45.5889 103.191 45.4582C102.924 45.2186 102.64 44.9161 102.313 44.8386C101.643 44.6813 100.925 44.5361 100.249 44.6038C99.4764 44.6813 98.5865 44.841 98.1652 45.5598C97.8137 46.16 97.2054 46.6441 97.2553 47.4911C97.2976 48.1857 97.0533 48.8972 96.9387 49.6015C96.9711 49.6136 97.0085 49.6184 97.0459 49.6233Z" fill="black"/>
<path d="M53.9811 56.8959C53.682 56.8959 53.3728 56.9419 53.0862 56.8862C52.4854 56.7725 51.8846 56.6321 51.3012 56.4482C50.9348 56.3344 50.5833 56.1505 50.2567 55.9472C49.8903 55.7197 49.5213 55.4729 49.2296 55.1655C48.9081 54.8291 48.6513 54.4273 48.4095 54.028C48.2126 53.7037 48.0729 53.3455 47.9259 52.9946C47.8162 52.7332 47.6816 52.4646 47.6541 52.1911C47.5445 51.0875 47.4348 49.9815 47.4024 48.8755C47.3874 48.3721 47.522 47.8566 47.6442 47.358C47.7688 46.8498 47.9134 46.3343 48.1353 45.8623C48.6039 44.8628 49.3368 44.0375 50.2119 43.3575C50.5559 43.0912 51.037 42.9896 51.4583 42.8178C51.8696 42.6532 52.281 42.4959 52.6973 42.341C52.777 42.3119 52.8718 42.3071 52.9615 42.3071C53.4102 42.3047 53.8614 42.2708 54.3052 42.3119C55.0456 42.3821 55.786 42.4741 56.5139 42.6169C56.7756 42.6677 57.0175 42.8734 57.2393 43.0453C57.7553 43.4422 58.3387 43.7979 58.7326 44.2916C59.1289 44.7878 59.6549 45.2597 59.6749 45.9858C59.6824 46.2229 59.8369 46.4529 59.8893 46.6925C59.9042 46.7651 59.8145 46.9248 59.7522 46.9369C59.0965 47.0531 58.4409 47.2007 57.7803 47.2176C57.5509 47.2225 57.2219 46.9272 57.0947 46.6925C56.7931 46.1358 56.6834 45.4146 56.0602 45.129C55.5466 44.8943 55.1154 44.357 54.4149 44.5675C54.1955 44.6329 53.9387 44.5966 53.7019 44.5748C53.1859 44.524 52.7521 44.6861 52.3607 44.9935C51.9394 45.3275 51.4309 45.5985 51.1193 46.0124C50.7952 46.4408 50.6506 47.0022 50.4487 47.5129C50.3515 47.7598 50.2792 48.0211 50.2418 48.2801C50.2118 48.4882 50.2468 48.706 50.2592 48.919C50.2991 49.6402 50.3415 50.3614 50.3888 51.0802C50.3938 51.1649 50.4287 51.2472 50.4437 51.3295C50.5309 51.8353 50.4711 52.4331 50.7354 52.8252C51.0819 53.3383 51.3985 53.8852 52.0292 54.2628C53.0388 54.8678 54.0684 54.6427 55.0904 54.6427C55.589 54.6427 56.0502 54.2797 56.3419 53.832C56.6061 53.4278 56.7856 52.951 57.1197 52.6171C57.4612 52.2758 57.2742 51.8934 57.4039 51.5643C57.4587 51.4263 57.8102 51.3223 58.0196 51.3344C58.4833 51.3586 58.9469 51.4505 59.4031 51.5449C59.6175 51.5885 59.8269 51.6877 60.0239 51.7869C60.0837 51.816 60.1485 51.9442 60.1311 52.0023C60.0214 52.3605 59.8918 52.7163 59.7621 53.0672C59.6624 53.3334 59.5976 53.6287 59.4356 53.8562C58.9918 54.4782 58.573 55.1389 58.0196 55.6616C57.4462 56.2038 56.7382 56.6007 55.8782 56.6781C55.2475 56.7338 54.6268 56.8911 54.001 57.0024C53.9936 56.9661 53.9861 56.9298 53.9811 56.8959Z" fill="black"/>
<path d="M9.04742 2.70802C9.04742 3.12913 9.09977 3.45827 9.03496 3.76563C8.93524 4.25451 8.75825 4.72886 8.61117 5.21048C8.6012 5.24678 8.57627 5.28066 8.57128 5.31939C8.48652 6.08658 8.44165 6.86104 8.30953 7.62097C8.22477 8.10259 8.0029 8.56242 7.85083 9.03193C7.81593 9.13842 7.8259 9.26185 7.78851 9.36592C7.65888 9.73621 7.54171 10.1138 7.36971 10.4671C7.2301 10.7551 7.05311 11.0479 6.82127 11.2682C6.71407 11.3698 6.40246 11.3698 6.24043 11.2972C5.52247 10.9778 5.55987 10.3098 5.49754 9.68296C5.43273 9.01983 5.39035 8.34702 5.22831 7.70568C5.1635 7.4564 4.79953 7.27489 4.56022 7.07643C4.53279 7.05223 4.37823 7.10547 4.36328 7.14904C4.25608 7.45398 4.12895 7.76134 4.08657 8.07839C3.97937 8.8722 3.9345 9.6757 3.82481 10.4695C3.74753 11.0213 3.23649 11.5054 2.80522 11.394C2.52602 11.3214 2.25928 11.0721 2.06234 10.8422C1.46903 10.1501 1.26461 9.33446 1.24716 8.43415C1.2322 7.62581 1.13498 6.81505 0.997872 6.0164C0.908128 5.49606 0.785976 4.93216 0.494308 4.50863C-0.0765644 3.68093 -0.0117493 2.7903 0.0306299 1.89968C0.0406015 1.64798 0.284905 1.40354 0.441957 1.16637C0.611474 0.909828 0.783484 0.653289 0.990394 0.425793C1.09011 0.316885 1.2671 0.270902 1.41419 0.203137C1.52387 0.152313 1.64104 0.11359 1.75322 0.0700272C1.81305 0.0458255 1.87786 -0.00499821 1.9352 -0.000157865C2.50857 0.0627667 3.08193 0.123271 3.65031 0.207977C3.80487 0.232179 3.94946 0.326566 4.09903 0.39191C4.13393 0.406431 4.16135 0.447574 4.19376 0.449995C4.40815 0.464516 4.6699 0.554062 4.83194 0.469356C5.56236 0.0821281 6.38751 0.367709 7.09798 0.145053C7.59656 -0.00983856 7.77106 0.24186 8.08018 0.411272C8.29706 0.52986 8.45411 0.684752 8.62862 0.832382C9.32164 1.42775 8.92029 2.15864 9.04742 2.70802Z" fill="black"/>
<path d="M67.545 49.5967C67.545 47.4016 67.5499 45.2041 67.54 43.009C67.5375 42.6992 67.6297 42.5757 67.9638 42.5854C68.6418 42.6048 69.3199 42.5733 69.9955 42.6072C70.1251 42.6145 70.3495 42.8226 70.3495 42.9388C70.3669 47.3967 70.3669 51.8571 70.3495 56.3151C70.3495 56.4312 70.1201 56.6394 69.9905 56.6442C69.3049 56.6781 68.6169 56.649 67.9289 56.666C67.6197 56.6732 67.5375 56.5474 67.54 56.2691C67.5499 54.0449 67.545 51.8208 67.545 49.5967Z" fill="black"/>
<path d="M88.7769 49.6305C88.7769 47.4451 88.7844 45.2573 88.7669 43.0719C88.7644 42.6822 88.8941 42.5685 89.2805 42.5854C89.9162 42.612 90.5568 42.5757 91.1925 42.6096C91.3147 42.6169 91.5291 42.8202 91.5291 42.9364C91.5465 47.3967 91.5465 51.8571 91.5291 56.3151C91.5291 56.4312 91.3022 56.6418 91.1726 56.6466C90.517 56.6805 89.8588 56.649 89.2007 56.6684C88.8716 56.6781 88.7694 56.5619 88.7719 56.2473C88.7819 54.0425 88.7769 51.8377 88.7769 49.6305Z" fill="black"/>
<path d="M67.5474 38.7349C67.5474 38.338 67.5275 37.9411 67.5624 37.5466C67.5723 37.4401 67.7493 37.2683 67.854 37.2659C68.5895 37.2417 69.3298 37.2417 70.0652 37.2659C70.1699 37.2683 70.3519 37.4474 70.3544 37.5491C70.3793 38.3405 70.3793 39.1343 70.3544 39.9281C70.3519 40.0273 70.1674 40.204 70.0627 40.2088C69.3273 40.233 68.587 40.233 67.8516 40.2088C67.7469 40.2064 67.5724 40.0297 67.5649 39.9232C67.5275 39.5288 67.5474 39.1318 67.5474 38.7349Z" fill="black"/>
<path d="M91.544 38.7204C91.544 39.1173 91.5665 39.5142 91.5291 39.9063C91.5191 40.0176 91.3371 40.2015 91.2274 40.2064C90.512 40.233 89.794 40.233 89.0811 40.2064C88.9764 40.2015 88.7944 40.0249 88.7919 39.9232C88.767 39.1318 88.767 38.3404 88.7919 37.549C88.7944 37.4474 88.9764 37.2683 89.0786 37.2635C89.794 37.2393 90.512 37.2368 91.2249 37.2635C91.3346 37.2683 91.5166 37.4498 91.5291 37.5611C91.5689 37.9459 91.544 38.3356 91.544 38.7204Z" fill="black"/>
</svg>
