<svg width="41" height="23" viewBox="0 0 41 23" fill="none" xmlns="http://www.w3.org/2000/svg">
<path d="M12.3105 16.2297C8.65768 16.2297 5.00577 16.2288 1.3529 16.2336C1.18478 16.2336 1.14179 16.1838 1.14275 16.0159C1.14752 12.6341 1.14752 9.25136 1.14275 5.86958C1.14275 5.69771 1.19146 5.64595 1.35672 5.65474C1.61941 5.66744 1.88402 5.66451 2.14767 5.65572C2.28618 5.65084 2.32248 5.70259 2.32248 5.83833C2.31866 7.98283 2.31961 10.1263 2.31961 12.2708C2.31961 13.1224 2.32343 13.9739 2.31579 14.8255C2.31388 14.9886 2.35496 15.0364 2.51926 15.0364C9.78583 15.0325 17.0524 15.0335 24.319 15.0276C24.532 15.0276 24.5826 15.0872 24.5826 15.3001C24.575 17.7532 24.5759 20.2053 24.5817 22.6583C24.5817 22.8243 24.5368 22.8781 24.3744 22.8683C24.1384 22.8556 23.9006 22.8585 23.6637 22.8673C23.5299 22.8722 23.4955 22.8204 23.4955 22.6906C23.4984 20.6047 23.4965 18.5197 23.5003 16.4338C23.5003 16.2766 23.4612 16.2278 23.3026 16.2278C19.6383 16.2307 15.9749 16.2297 12.3105 16.2297Z" fill="black"/>
<path d="M24.5769 9.67976C24.5769 10.9532 24.575 12.2256 24.5798 13.499C24.5798 13.6348 24.5444 13.6875 24.4049 13.6816C24.1757 13.6719 23.9464 13.6719 23.7172 13.6807C23.4908 13.6895 23.3905 13.5537 23.3035 13.3662C23.2395 13.2285 23.1316 13.1133 23.0485 12.9844C22.9406 12.8164 22.8393 12.6455 22.7352 12.4756C22.6693 12.3682 22.6081 12.2569 22.5346 12.1563C22.4238 12.0049 22.2938 11.8672 22.1907 11.71C22.1047 11.5791 22.0512 11.4248 21.9719 11.2881C21.907 11.1778 21.8258 11.0772 21.7494 10.9727C21.6424 10.8262 21.5258 10.6866 21.4284 10.5333C21.2813 10.3018 21.1533 10.0567 21.0062 9.82526C20.9116 9.67683 20.7912 9.545 20.6948 9.39754C20.6021 9.25692 20.5295 9.10164 20.4407 8.95907C20.3643 8.83798 20.2735 8.72665 20.1942 8.60654C20.0844 8.44052 19.9793 8.27158 19.8704 8.10459C19.8465 8.06748 19.8179 8.0333 19.7921 7.9962C19.7223 7.89366 19.6555 7.79112 19.5848 7.68956C19.5733 7.67394 19.5513 7.66612 19.5341 7.6544C19.5265 7.67491 19.5131 7.6964 19.5122 7.7169C19.5103 7.8419 19.5103 7.9669 19.5103 8.0919C19.5103 9.88874 19.5083 11.6846 19.5131 13.4814C19.5131 13.6357 19.4701 13.6875 19.3192 13.6797C19.0756 13.668 18.8301 13.6709 18.5856 13.6787C18.4643 13.6826 18.427 13.6377 18.427 13.5166C18.4308 12.4971 18.4289 11.4776 18.4289 10.459C18.4289 8.92001 18.4308 7.38195 18.4261 5.84291C18.4261 5.70327 18.4614 5.64468 18.6056 5.65346C18.7805 5.66421 18.9572 5.65346 19.1329 5.65639C19.346 5.65932 19.5752 5.59097 19.6937 5.881C19.7672 6.06166 19.8895 6.22377 20.0003 6.38587C20.1063 6.54114 20.2315 6.68177 20.3356 6.83801C20.4216 6.96594 20.4827 7.11145 20.5658 7.24133C20.6661 7.3966 20.7817 7.5421 20.8858 7.69444C21.0024 7.86436 21.1151 8.03721 21.2297 8.20908C21.3147 8.33701 21.4016 8.46494 21.4857 8.59384C21.5927 8.75888 21.694 8.92782 21.8029 9.09188C21.8965 9.2325 22.0006 9.36629 22.0932 9.50789C22.2107 9.68757 22.3187 9.87311 22.4371 10.0528C22.6024 10.3028 22.7762 10.5469 22.9406 10.7979C23.0972 11.0372 23.2453 11.2832 23.3991 11.5245C23.4153 11.5489 23.4478 11.5625 23.4726 11.5811C23.4793 11.5479 23.4927 11.5147 23.4927 11.4815C23.4946 11.1377 23.4936 10.794 23.4936 10.4503C23.4936 8.91512 23.4955 7.38097 23.4908 5.84584C23.4908 5.69839 23.5309 5.64565 23.679 5.65249C23.9225 5.66323 24.168 5.66128 24.4126 5.65346C24.5387 5.64956 24.5769 5.69643 24.5769 5.82338C24.5759 7.10949 24.5769 8.39463 24.5769 9.67976Z" fill="black"/>
<path d="M3.53094 9.66716C3.53094 8.38984 3.53285 7.1135 3.52808 5.83618C3.52808 5.69946 3.56629 5.65356 3.70384 5.65356C4.71641 5.65845 5.72897 5.64966 6.74058 5.6604C7.02429 5.66333 7.31373 5.69556 7.5898 5.76294C7.7904 5.81176 7.97381 5.93872 8.1639 6.03246C8.37215 6.13598 8.59186 6.22289 8.78386 6.35375C8.91091 6.44066 8.99879 6.58812 9.101 6.71214C9.13348 6.7512 9.14686 6.80589 9.17742 6.8469C9.30447 7.01487 9.44681 7.17209 9.56048 7.34885C9.62257 7.44552 9.63881 7.57247 9.67607 7.68575C9.73434 7.86837 9.79261 8.05 9.85183 8.23262C9.85279 8.23652 9.85565 8.23945 9.85565 8.24336C9.88909 8.45136 9.94449 8.65839 9.95022 8.86737C9.96455 9.38201 9.97315 9.89958 9.94736 10.4132C9.93398 10.672 9.84037 10.9269 9.78114 11.1837C9.74771 11.3292 9.71714 11.4757 9.67511 11.6193C9.64836 11.712 9.61971 11.8107 9.56526 11.8878C9.35797 12.1808 9.1459 12.4708 8.92237 12.7511C8.79724 12.9073 8.6635 13.0665 8.50206 13.1769C8.34827 13.2823 8.15435 13.3263 7.97763 13.3956C7.83625 13.4513 7.69392 13.504 7.55159 13.5567C7.52007 13.5685 7.48759 13.5792 7.45415 13.5841C6.21519 13.7423 4.96955 13.6573 3.72677 13.6827C3.5682 13.6856 3.52808 13.6339 3.52808 13.4767C3.53285 12.2052 3.53094 10.9357 3.53094 9.66716ZM4.70303 9.71306C4.70303 10.6222 4.70399 11.5324 4.70112 12.4415C4.70112 12.5489 4.72691 12.5958 4.84154 12.5948C5.57518 12.5909 6.30785 12.5929 7.04149 12.5919C7.08065 12.5919 7.12268 12.5792 7.15994 12.5626C7.28699 12.506 7.41212 12.4474 7.53726 12.3849C7.70443 12.3019 7.88784 12.2374 8.03112 12.1222C8.15531 12.0236 8.23937 11.8683 8.33012 11.7316C8.39699 11.631 8.45526 11.5226 8.50206 11.4103C8.54983 11.2941 8.57848 11.1701 8.61669 11.0499C8.67687 10.8595 8.78386 10.671 8.7915 10.4787C8.81443 9.90544 8.8001 9.33123 8.79915 8.75702C8.79915 8.72187 8.79915 8.68476 8.78864 8.65351C8.72655 8.4748 8.65777 8.29902 8.59759 8.12032C8.55651 8.0002 8.55078 7.86055 8.48487 7.75997C8.36069 7.57052 8.22218 7.38498 8.05787 7.23361C7.92127 7.10764 7.7455 7.01682 7.57452 6.93967C7.40066 6.86155 7.21152 6.77464 7.02716 6.76975C6.32887 6.75022 5.62963 6.76097 4.93038 6.76194C4.78041 6.76194 4.70112 6.82835 4.70208 6.99534C4.70494 7.90157 4.70303 8.80683 4.70303 9.71306Z" fill="black"/>
<path d="M11.277 9.66131C11.277 8.3879 11.2789 7.11546 11.2742 5.84205C11.2732 5.70143 11.3114 5.6526 11.4547 5.65358C13.2276 5.65748 14.9996 5.65748 16.7726 5.65456C16.9006 5.65456 16.9502 5.69166 16.9455 5.8274C16.9369 6.0774 16.9359 6.32739 16.9455 6.57739C16.9512 6.71996 16.9073 6.76586 16.7649 6.76586C15.3894 6.76098 14.0148 6.76586 12.6392 6.76C12.4854 6.75903 12.4453 6.80785 12.4472 6.96019C12.4548 7.56956 12.4558 8.17892 12.4462 8.78731C12.4434 8.95039 12.4959 8.98847 12.6478 8.9875C13.9164 8.98164 15.184 8.98652 16.4526 8.98164C16.5987 8.98066 16.6579 9.01777 16.6493 9.17695C16.6369 9.41815 16.6407 9.66131 16.6484 9.9035C16.6522 10.0324 16.6064 10.0724 16.4831 10.0715C15.1993 10.0676 13.9164 10.0715 12.6325 10.0656C12.4835 10.0646 12.4453 10.1115 12.4462 10.259C12.4529 10.9699 12.4539 11.6808 12.4462 12.3908C12.4443 12.547 12.4835 12.5978 12.643 12.5968C14.0759 12.5909 15.5078 12.5958 16.9407 12.5909C17.0849 12.5909 17.1365 12.632 17.1298 12.7823C17.1193 13.0314 17.1346 13.2823 17.1203 13.5314C17.1174 13.5821 17.0353 13.671 16.9894 13.671C15.1286 13.6778 13.2687 13.6759 11.4079 13.6788C11.2732 13.6788 11.2751 13.6007 11.2751 13.504C11.277 12.2238 11.277 10.9425 11.277 9.66131Z" fill="black"/>
<path d="M29.3467 10.2214C29.3467 11.3141 29.3448 12.4078 29.3496 13.5006C29.3505 13.6383 29.3095 13.6861 29.1729 13.6812C28.8977 13.6725 28.6226 13.6725 28.3485 13.6812C28.2128 13.6861 28.1718 13.6393 28.1718 13.5006C28.1756 11.3571 28.1746 9.21356 28.1746 7.07004C28.1746 6.78196 28.1555 6.76145 27.8766 6.76145C27.1735 6.76145 26.4714 6.7595 25.7683 6.76341C25.6451 6.76438 25.5993 6.72532 25.6031 6.59642C25.6107 6.32689 25.5993 6.05737 25.6117 5.78882C25.6136 5.74292 25.691 5.66284 25.733 5.66284C27.7266 5.65601 29.7202 5.65601 31.7138 5.66284C31.7578 5.66284 31.8361 5.74878 31.838 5.7976C31.8504 6.07006 31.8514 6.34447 31.837 6.61693C31.8342 6.66771 31.7453 6.75462 31.6947 6.75559C30.9725 6.76438 30.2513 6.76634 29.5292 6.75852C29.3792 6.75657 29.3429 6.80638 29.3439 6.95286C29.3496 8.04268 29.3467 9.1325 29.3467 10.2214Z" fill="black"/>
<path d="M28.1734 20.0225C28.1734 19.1397 28.1762 18.2579 28.1705 17.3751C28.1695 17.2238 28.2163 17.1769 28.3615 17.1837C28.5669 17.1945 28.7742 17.1954 28.9796 17.1837C29.1305 17.1749 29.1783 17.2345 29.1639 17.379C29.1553 17.4718 29.1611 17.5665 29.163 17.6603C29.1639 17.6896 29.1764 17.7179 29.184 17.7472C29.2031 17.7277 29.2193 17.7052 29.2413 17.6905C29.44 17.5519 29.6377 17.4103 29.8403 17.2765C30.2758 16.9894 30.7659 17.0753 31.2406 17.0792C31.3658 17.0802 31.4928 17.1564 31.6141 17.2101C31.7097 17.2531 31.8119 17.299 31.8864 17.3702C32.1032 17.5763 32.3182 17.7872 32.5102 18.0157C32.5761 18.0939 32.5828 18.2306 32.599 18.3429C32.813 19.7921 32.6334 21.251 32.6936 22.7041C32.6983 22.8281 32.6515 22.8692 32.534 22.8652C32.3201 22.8584 32.1061 22.8574 31.8921 22.8662C31.7622 22.8711 31.7202 22.8252 31.7211 22.6914C31.7259 21.7149 31.7335 20.7393 31.7183 19.7628C31.7125 19.419 31.6686 19.0704 31.5979 18.7345C31.5606 18.5567 31.4508 18.381 31.3333 18.2384C31.2626 18.1524 31.1203 18.1173 31.0028 18.0851C30.8337 18.0392 30.6503 17.9708 30.486 17.9982C30.2548 18.0362 30.0323 18.1427 29.8154 18.2423C29.7027 18.294 29.6005 18.3829 29.5126 18.4728C29.4438 18.544 29.3712 18.6378 29.355 18.7315C29.3063 19.0069 29.3005 19.2901 29.2509 19.5645C29.0598 20.6211 29.2107 21.6856 29.1563 22.7451C29.1544 22.7852 29.0904 22.8545 29.0531 22.8555C28.7971 22.8652 28.5411 22.8672 28.2861 22.8535C28.2459 22.8516 28.1781 22.7549 28.1781 22.7022C28.1714 21.8106 28.1734 20.9161 28.1734 20.0225Z" fill="black"/>
<path d="M37.1852 20.0231C37.1852 20.1481 37.1747 20.2741 37.1871 20.3981C37.2119 20.6383 37.2215 20.8854 37.2902 21.1129C37.3781 21.4049 37.5443 21.6823 37.7937 21.8454C38.0009 21.9821 38.2426 22.111 38.5244 22.0641C38.662 22.0416 38.8091 22.0787 38.9466 22.0543C39.0584 22.0348 39.1692 21.9762 39.2676 21.9147C39.3784 21.8463 39.5045 21.7741 39.5704 21.6686C39.6822 21.4889 39.7577 21.2838 39.8388 21.0846C39.8837 20.9753 39.9009 20.8542 39.9487 20.7458C39.9611 20.7165 40.0414 20.7018 40.0872 20.7077C40.2572 20.7301 40.4263 20.7594 40.5944 20.7946C40.7225 20.8219 40.8485 20.862 40.9737 20.901C40.988 20.9059 41.0052 20.9508 40.9985 20.9674C40.8791 21.2536 40.7683 21.5436 40.6298 21.82C40.5591 21.9616 40.4426 22.0817 40.3404 22.2057C40.242 22.3258 40.1445 22.4508 40.028 22.5514C39.9267 22.6393 39.7997 22.6979 39.6822 22.7643C39.1673 23.0543 38.6056 22.9508 38.0611 22.9459C37.872 22.944 37.6666 22.8522 37.4994 22.7496C37.232 22.5865 36.9769 22.3951 36.7448 22.1842C36.6283 22.0787 36.5728 21.903 36.4917 21.7575C36.3999 21.5954 36.3111 21.4313 36.2213 21.2682C36.2108 21.2487 36.2022 21.2252 36.2003 21.2028C36.1678 20.7135 36.121 20.2243 36.1124 19.7341C36.1076 19.4558 36.1439 19.1706 36.2099 18.9001C36.2576 18.7028 36.377 18.5212 36.4735 18.3386C36.5662 18.1618 36.6493 17.9714 36.7773 17.8249C36.9244 17.657 37.1097 17.5183 37.2941 17.3904C37.3858 17.3269 37.5157 17.323 37.6246 17.28C37.7736 17.2214 37.9178 17.1492 38.0649 17.0867C38.0984 17.072 38.1395 17.071 38.1767 17.071C38.5015 17.0701 38.8272 17.0564 39.1501 17.0769C39.2877 17.0857 39.4214 17.1648 39.5551 17.2165C39.5809 17.2263 39.6 17.2703 39.6239 17.2712C39.9105 17.2869 40.1159 17.4714 40.2811 17.6687C40.4598 17.8825 40.5878 18.1433 40.7177 18.3943C40.7941 18.5417 40.8352 18.7097 40.8858 18.8708C40.8915 18.8884 40.8581 18.9382 40.8371 18.9421C40.5859 18.986 40.3346 19.0358 40.0815 19.0603C39.8885 19.0788 39.7634 18.9343 39.7452 18.7321C39.7395 18.6696 39.6917 18.611 39.6602 18.5525C39.622 18.4812 39.5953 18.3952 39.5399 18.3425C39.4376 18.2458 39.3287 18.1238 39.2036 18.0925C38.9466 18.029 38.6715 17.9704 38.4127 17.9978C38.1165 18.029 37.7755 18.0935 37.6141 18.3835C37.4794 18.6257 37.2463 18.821 37.2654 19.1628C37.2816 19.4431 37.188 19.7302 37.1441 20.0143C37.1565 20.0192 37.1708 20.0212 37.1852 20.0231Z" fill="black"/>
<path d="M20.6831 22.957C20.5685 22.957 20.45 22.9756 20.3402 22.9531C20.1099 22.9072 19.8797 22.8506 19.6562 22.7764C19.5158 22.7305 19.3811 22.6563 19.2559 22.5742C19.1155 22.4824 18.9741 22.3828 18.8624 22.2588C18.7392 22.1231 18.6408 21.961 18.5481 21.7998C18.4726 21.669 18.4191 21.5244 18.3628 21.3828C18.3208 21.2774 18.2692 21.169 18.2587 21.0586C18.2166 20.6133 18.1746 20.167 18.1622 19.7208C18.1564 19.5176 18.208 19.3096 18.2548 19.1085C18.3026 18.9034 18.358 18.6954 18.443 18.505C18.6226 18.1017 18.9035 17.7687 19.2387 17.4942C19.3706 17.3868 19.5549 17.3458 19.7164 17.2765C19.874 17.2101 20.0316 17.1466 20.1911 17.0841C20.2217 17.0724 20.258 17.0704 20.2924 17.0704C20.4643 17.0695 20.6372 17.0558 20.8073 17.0724C21.091 17.1007 21.3747 17.1378 21.6536 17.1954C21.7539 17.2159 21.8466 17.2989 21.9316 17.3683C22.1293 17.5284 22.3529 17.672 22.5038 17.8712C22.6557 18.0714 22.8572 18.2618 22.8649 18.5548C22.8677 18.6505 22.927 18.7432 22.947 18.8399C22.9528 18.8692 22.9184 18.9337 22.8945 18.9386C22.6433 18.9854 22.392 19.045 22.1389 19.0518C22.051 19.0538 21.9249 18.9346 21.8762 18.8399C21.7606 18.6153 21.7186 18.3243 21.4798 18.2091C21.283 18.1144 21.1177 17.8976 20.8493 17.9825C20.7652 18.0089 20.6668 17.9942 20.5761 17.9854C20.3784 17.9649 20.2121 18.0304 20.0622 18.1544C19.9007 18.2892 19.7059 18.3985 19.5865 18.5655C19.4623 18.7384 19.4069 18.9649 19.3295 19.171C19.2922 19.2706 19.2645 19.376 19.2502 19.4805C19.2387 19.5645 19.2521 19.6524 19.2569 19.7383C19.2722 20.0294 19.2884 20.3204 19.3066 20.6104C19.3085 20.6446 19.3219 20.6778 19.3276 20.711C19.361 20.9151 19.3381 21.1563 19.4394 21.3145C19.5721 21.5215 19.6934 21.7422 19.9351 21.8946C20.322 22.1387 20.7165 22.0479 21.1082 22.0479C21.2992 22.0479 21.4759 21.9014 21.5877 21.7207C21.689 21.5576 21.7577 21.3653 21.8857 21.2305C22.0166 21.0928 21.945 20.9385 21.9946 20.8057C22.0157 20.75 22.1504 20.7081 22.2306 20.7129C22.4083 20.7227 22.5859 20.7598 22.7608 20.7979C22.8429 20.8155 22.9231 20.8555 22.9986 20.8955C23.0215 20.9073 23.0464 20.959 23.0397 20.9825C22.9977 21.127 22.948 21.2705 22.8983 21.4121C22.8601 21.5196 22.8353 21.6387 22.7732 21.7305C22.6031 21.9815 22.4427 22.2481 22.2306 22.459C22.0109 22.6777 21.7396 22.8379 21.41 22.8691C21.1684 22.8916 20.9305 22.9551 20.6907 23C20.6879 22.9854 20.685 22.9707 20.6831 22.957Z" fill="black"/>
<path d="M3.46528 1.09288C3.46528 1.2628 3.48534 1.39561 3.46051 1.51963C3.4223 1.71689 3.35447 1.90829 3.29811 2.10263C3.29429 2.11727 3.28474 2.13095 3.28283 2.14657C3.25035 2.45613 3.23316 2.76863 3.18253 3.07526C3.15005 3.26959 3.06503 3.45514 3.00676 3.64459C2.99339 3.68756 2.99721 3.73736 2.98288 3.77935C2.93321 3.92876 2.88831 4.0811 2.8224 4.22368C2.7689 4.33989 2.70108 4.45805 2.61224 4.54691C2.57117 4.58793 2.45176 4.58793 2.38967 4.55863C2.11456 4.42973 2.12889 4.1602 2.10501 3.90728C2.08017 3.6397 2.06393 3.36823 2.00184 3.10944C1.977 3.00886 1.83754 2.93562 1.74583 2.85554C1.73533 2.84578 1.6761 2.86726 1.67037 2.88484C1.62929 3.00788 1.58058 3.1319 1.56434 3.25983C1.52326 3.58014 1.50607 3.90435 1.46404 4.22465C1.43442 4.44731 1.2386 4.64261 1.07334 4.59769C0.966351 4.5684 0.864139 4.46781 0.788674 4.37504C0.561325 4.09575 0.482995 3.76666 0.476308 3.40338C0.470577 3.07722 0.433322 2.75007 0.380783 2.42782C0.346394 2.21786 0.299587 1.99032 0.187823 1.81943C-0.030929 1.48545 -0.00609257 1.12608 0.0101467 0.766716C0.0139677 0.665156 0.107582 0.566525 0.167763 0.470824C0.23272 0.36731 0.298632 0.263797 0.377917 0.172002C0.416127 0.128057 0.48395 0.109503 0.54031 0.0821598C0.582341 0.0616524 0.627237 0.0460277 0.670224 0.02845C0.693149 0.0186846 0.717986 -0.00182284 0.739957 0.000130245C0.959664 0.0255204 1.17937 0.0499339 1.39717 0.0841129C1.45639 0.0938783 1.5118 0.131963 1.56911 0.15833C1.58249 0.164189 1.59299 0.180791 1.60541 0.181767C1.68756 0.187626 1.78786 0.223759 1.84996 0.18958C2.12984 0.0333327 2.44603 0.148565 2.71828 0.0587228C2.90933 -0.00377592 2.97619 0.0977845 3.09464 0.166142C3.17775 0.213993 3.23793 0.276492 3.3048 0.336061C3.57036 0.57629 3.41656 0.871206 3.46528 1.09288Z" fill="black"/>
<path d="M25.8807 20.0121C25.8807 19.1264 25.8826 18.2397 25.8788 17.354C25.8778 17.229 25.9132 17.1792 26.0412 17.1831C26.301 17.1909 26.5608 17.1782 26.8197 17.1919C26.8694 17.1948 26.9553 17.2788 26.9553 17.3256C26.962 19.1244 26.962 20.9242 26.9553 22.723C26.9553 22.7699 26.8675 22.8538 26.8178 22.8558C26.5551 22.8695 26.2914 22.8578 26.0278 22.8646C25.9093 22.8675 25.8778 22.8167 25.8788 22.7044C25.8826 21.807 25.8807 20.9096 25.8807 20.0121Z" fill="black"/>
<path d="M34.0167 20.0255C34.0167 19.1437 34.0195 18.2609 34.0128 17.3791C34.0119 17.2218 34.0616 17.1759 34.2096 17.1828C34.4532 17.1935 34.6987 17.1789 34.9423 17.1925C34.9891 17.1955 35.0712 17.2775 35.0712 17.3244C35.0779 19.1241 35.0779 20.9239 35.0712 22.7227C35.0712 22.7696 34.9843 22.8545 34.9346 22.8565C34.6834 22.8702 34.4312 22.8575 34.179 22.8653C34.053 22.8692 34.0138 22.8223 34.0147 22.6954C34.0186 21.8057 34.0167 20.9161 34.0167 20.0255Z" fill="black"/>
<path d="M25.8818 15.6289C25.8818 15.4687 25.8741 15.3086 25.8875 15.1494C25.8913 15.1064 25.9592 15.0371 25.9993 15.0361C26.2811 15.0264 26.5648 15.0264 26.8466 15.0361C26.8867 15.0371 26.9564 15.1094 26.9574 15.1504C26.9669 15.4697 26.9669 15.79 26.9574 16.1103C26.9564 16.1504 26.8857 16.2217 26.8456 16.2236C26.5638 16.2334 26.2801 16.2334 25.9983 16.2236C25.9582 16.2226 25.8913 16.1513 25.8885 16.1084C25.8741 15.9492 25.8818 15.789 25.8818 15.6289Z" fill="black"/>
<path d="M35.0771 15.6244C35.0771 15.7845 35.0857 15.9447 35.0713 16.1029C35.0675 16.1478 34.9978 16.222 34.9558 16.224C34.6816 16.2347 34.4065 16.2347 34.1333 16.224C34.0932 16.222 34.0234 16.1507 34.0225 16.1097C34.0129 15.7904 34.0129 15.4711 34.0225 15.1517C34.0234 15.1107 34.0932 15.0385 34.1323 15.0365C34.4065 15.0267 34.6816 15.0258 34.9548 15.0365C34.9968 15.0385 35.0666 15.1117 35.0713 15.1566C35.0866 15.3119 35.0771 15.4691 35.0771 15.6244Z" fill="black"/>
</svg>
